<?xml version="1.0" encoding="utf-8"?>
<!-- Generator: Adobe Illustrator 24.1.3, SVG Export Plug-In . SVG Version: 6.00 Build 0)  -->
<svg version="1.1" id="Layer_1" xmlns="http://www.w3.org/2000/svg" xmlns:xlink="http://www.w3.org/1999/xlink" x="0px" y="0px"
	 viewBox="0 0 150 150" style="enable-background:new 0 0 150 150;" xml:space="preserve">
<style type="text/css">
	.st0{fill:#6EBE45;}
	.st1{fill:#1C447F;}
	.st2{font-family:'Arial-BoldMT';}
	.st3{font-size:6.7715px;}
</style>
<path class="st0" d="M42.08,63.42c65.2-34.18,92.63-18.99,91.47-13.61c-0.8,8.67-18.15,16.25-18.15,16.25s10.76-8.7,5.25-14.68
	c-0.82-0.89-1.86-1.54-3-1.95C102.56,44.07,64.22,52.59,42.08,63.42z"/>
<path class="st1" d="M94.51,83.15c-26.7,19.74-66.5,32.93-85.74,19.83c-0.87-0.6-1.65-1.33-2.26-2.2
	c-7.09-10.14,16.04-23.86,16.04-23.86S11.62,89.5,17.88,96.28c0.74,0.8,1.65,1.42,2.65,1.86C37.56,105.54,74.83,94.95,94.51,83.15z"
	/>
<path class="st0" d="M29.28,85.58h-3.85l3.27-14.96H23.2l0.65-3H38.6l-0.65,3h-5.41L29.28,85.58z"/>
<path class="st0" d="M41.89,85.58h-3.93l3.99-17.96h8.46c1.46,0,2.59,0.14,3.4,0.42c0.81,0.28,1.46,0.8,1.96,1.55
	c0.5,0.75,0.75,1.66,0.75,2.73c0,1.53-0.49,2.79-1.46,3.78c-0.97,0.99-2.44,1.61-4.41,1.84c0.5,0.42,0.98,0.98,1.42,1.68
	c0.88,1.4,1.85,3.39,2.93,5.95H50.8c-0.34-1.01-1-2.59-1.99-4.74c-0.54-1.16-1.11-1.94-1.72-2.34c-0.37-0.24-1.02-0.36-1.95-0.36
	h-1.6L41.89,85.58z M44.14,75.45h2.08c2.11,0,3.5-0.12,4.19-0.36c0.69-0.24,1.23-0.61,1.62-1.11c0.39-0.51,0.59-1.04,0.59-1.59
	c0-0.65-0.28-1.14-0.85-1.47c-0.35-0.2-1.1-0.29-2.25-0.29h-4.32L44.14,75.45z"/>
<path class="st0" d="M57.8,85.58l3.89-17.96h3.82l-3.88,17.96H57.8z"/>
<path class="st1" d="M70.13,85.58h-3.91l3.97-17.96h7.71c1.37,0,2.46,0.15,3.25,0.46c0.8,0.31,1.43,0.81,1.9,1.52
	c0.47,0.71,0.7,1.55,0.7,2.53c0,0.91-0.19,1.79-0.56,2.65c-0.37,0.86-0.83,1.54-1.36,2.06c-0.54,0.51-1.12,0.9-1.74,1.17
	c-0.62,0.27-1.46,0.47-2.51,0.61c-0.61,0.08-1.76,0.12-3.44,0.12h-2.5L70.13,85.58z M72.29,75.76h1.2c2.06,0,3.44-0.12,4.13-0.37
	c0.69-0.24,1.23-0.64,1.63-1.18c0.4-0.54,0.6-1.13,0.6-1.78c0-0.43-0.1-0.79-0.3-1.07c-0.2-0.28-0.49-0.48-0.85-0.61
	c-0.37-0.13-1.18-0.19-2.45-0.19h-2.79L72.29,75.76z"/>
<path class="st1" d="M97.07,81.61h-7.48l-2.27,3.97h-3.99L94,67.63h4.31l3.06,17.96H97.7L97.07,81.61z M96.59,78.63L95.5,71.4
	l-4.56,7.23H96.59z"/>
<path class="st1" d="M118.48,79.12l3.94,0.56c-0.77,2.02-1.92,3.56-3.46,4.62c-1.54,1.07-3.34,1.6-5.41,1.6
	c-2.33,0-4.14-0.66-5.45-1.98c-1.31-1.32-1.96-3.24-1.96-5.76c0-2.04,0.44-3.91,1.32-5.6c0.88-1.69,2.09-2.99,3.65-3.89
	c1.56-0.9,3.25-1.35,5.08-1.35c2.06,0,3.72,0.52,4.99,1.56c1.27,1.04,2.02,2.46,2.24,4.26l-3.75,0.34c-0.21-1.05-0.61-1.8-1.2-2.27
	c-0.59-0.47-1.38-0.7-2.37-0.7c-1.08,0-2.09,0.31-3.03,0.93c-0.94,0.62-1.69,1.59-2.25,2.91c-0.56,1.32-0.84,2.64-0.84,3.95
	c0,1.44,0.37,2.55,1.1,3.33c0.73,0.78,1.64,1.18,2.73,1.18c1.01,0,1.94-0.31,2.78-0.93C117.43,81.25,118.06,80.33,118.48,79.12z"/>
<path class="st1" d="M124.64,85.58l3.96-17.96h3.91l-1.68,7.63l8.77-7.63h5.23l-8.52,7.04l6.25,10.91h-4.41l-4.68-8.55l-3.69,3.05
	l-1.22,5.5H124.64z"/>
<text transform="matrix(1 0 0 1 94.589 95.1547)" class="st0 st2 st3">GROUP</text>
</svg>
